<svg xmlns="http://www.w3.org/2000/svg" viewBox="0 0 2000 1500"><path fill="#0B79E5" d="M0 0h2000v1500H0z"/><defs><use id="f" href="#a" stroke-dasharray="100 100 100 9999"/><use id="b" href="#a" stroke-dasharray="250 250 250 250 250 9999"/><use id="e" href="#a" stroke-dasharray="1000 500 1000 500 9999"/><use id="g" href="#a" stroke-dasharray="1500 9999"/><use id="h" href="#a" stroke-dasharray="2000 500 500 9999"/><use id="j" href="#a" stroke-dasharray="800 800 800 800 800 9999"/><use id="k" href="#a" stroke-dasharray="1200 1200 1200 1200 1200 9999"/><use id="l" href="#a" stroke-dasharray="1600 1600 1600 1600 1600 9999"/><circle stroke="#095FB4" vector-effect="non-scaling-stroke" id="a" fill="none" stroke-width="40" r="315"/></defs><g transform="translate(1000 750)"><circle fill="#095FB4" r="10"/><g><use href="#f" transform="rotate(50) scale(.1)"/><use href="#f" transform="rotate(100) scale(.2)"/><use href="#f" transform="rotate(150) scale(.3)"/></g><g><use href="#b" transform="rotate(-160) scale(.4)"/><use href="#z" transform="rotate(-110) scale(.5)"/></g><g id="z"><use href="#b"/><use href="#b" transform="rotate(90) scale(1.2)"/><use href="#b" transform="rotate(60) scale(1.4)"/><use href="#e" transform="rotate(120) scale(1.6)"/><use href="#e" transform="rotate(30) scale(1.8)"/></g><g id="y"><use href="#e" transform="rotate(20) scale(1.1)"/><use href="#g" transform="rotate(-40) scale(1.3)"/><use href="#g" transform="rotate(60) scale(1.5)"/><use href="#h" transform="rotate(-80) scale(1.7)"/><use href="#j" transform="rotate(100) scale(1.9)"/></g><g><g><g><use href="#h" transform="rotate(60) scale(2)"/><use href="#j" transform="rotate(120) scale(2.1)"/><use href="#j" transform="rotate(180) scale(2.3)"/><use href="#h" transform="rotate(-120) scale(2.4)"/><use href="#j" transform="rotate(-60) scale(2.5)"/></g><use href="#y" transform="rotate(180) scale(2)"/><use href="#j" transform="scale(2.7)"/><use href="#j" transform="rotate(45) scale(2.8)"/><use href="#j" transform="rotate(90) scale(2.9)"/><use href="#k" transform="rotate(135) scale(3.1)"/><use href="#k" transform="rotate(180) scale(3.2)"/></g><use href="#k" transform="rotate(-135) scale(3.3)"/><use href="#k" transform="rotate(-90) scale(3.5)"/><use href="#k" transform="rotate(-45) scale(3.6)"/><use href="#k" transform="scale(3.7)"/><use href="#k" transform="rotate(75) scale(3.9)"/></g></g></svg>