<svg xmlns="http://www.w3.org/2000/svg" viewBox="0 0 100 1000"><path fill="#095FB4" d="M0 0h100v1000H0z"/><circle fill="#095FB4" cx="50" r="50"/><g fill="#1064b8"><circle cy="50" r="50"/><circle cx="100" cy="50" r="50"/></g><circle fill="#1769bb" cx="50" cy="100" r="50"/><g fill="#1e6ebf"><circle cy="150" r="50"/><circle cx="100" cy="150" r="50"/></g><circle fill="#2573c3" cx="50" cy="200" r="50"/><g fill="#2c79c6"><circle cy="250" r="50"/><circle cx="100" cy="250" r="50"/></g><circle fill="#327eca" cx="50" cy="300" r="50"/><g fill="#3983ce"><circle cy="350" r="50"/><circle cx="100" cy="350" r="50"/></g><circle fill="#4088d1" cx="50" cy="400" r="50"/><g fill="#478dd5"><circle cy="450" r="50"/><circle cx="100" cy="450" r="50"/></g><circle fill="#4e92d9" cx="50" cy="500" r="50"/><g fill="#5597dc"><circle cy="550" r="50"/><circle cx="100" cy="550" r="50"/></g><circle fill="#5c9ce0" cx="50" cy="600" r="50"/><g fill="#63a1e3"><circle cy="650" r="50"/><circle cx="100" cy="650" r="50"/></g><circle fill="#6aa6e7" cx="50" cy="700" r="50"/><g fill="#71aceb"><circle cy="750" r="50"/><circle cx="100" cy="750" r="50"/></g><circle fill="#77b1ee" cx="50" cy="800" r="50"/><g fill="#7eb6f2"><circle cy="850" r="50"/><circle cx="100" cy="850" r="50"/></g><circle fill="#85bbf6" cx="50" cy="900" r="50"/><g fill="#8cc0f9"><circle cy="950" r="50"/><circle cx="100" cy="950" r="50"/></g><circle fill="#93C5FD" cx="50" cy="1000" r="50"/></svg>