<svg xmlns="http://www.w3.org/2000/svg" viewBox="0 0 1600 900"><path fill="#095FB4" d="M0 0h1600v900H0z"/><path fill="#1b7eb4" d="M957 450 539 900h857z"/><path d="m957 450-84.1 450H1396z"/><path fill="#187bba" d="m-60 900 458-238 418 238z"/><path fill="#062831" d="m337 900 61-238 418 238z"/><path fill="#1478c0" d="m1203 546 349 354H876z"/><path fill="#0b5063" d="m1203 546 349 354h-390z"/><path fill="#1174c5" d="m641 695 245 205H367z"/><path fill="#117894" d="m587 900 54-205 245 205z"/><path fill="#0d71cb" d="m1710 900-309-268-305 268z"/><path fill="#16a0c6" d="m1710 900-309-268-36 268z"/><path fill="#0a6ed1" d="M1210 900 971 687 725 900z"/><path fill="#1cc8f7" d="M943 900h267L971 687z"/></svg>