<svg xmlns="http://www.w3.org/2000/svg" viewBox="0 0 1200 800"><path fill="#095FB4" d="M0 0h1200v800H0z"/><defs><linearGradient id="a" gradientUnits="userSpaceOnUse" x1="600" y1="25" x2="600" y2="777"><stop offset="0" stop-color="#095FB4"/><stop offset="1" stop-color="#3B82F6"/></linearGradient><linearGradient id="b" gradientUnits="userSpaceOnUse" x1="650" y1="25" x2="650" y2="777"><stop offset="0" stop-color="#0962be"/><stop offset="1" stop-color="#4389f7"/></linearGradient><linearGradient id="c" gradientUnits="userSpaceOnUse" x1="700" y1="25" x2="700" y2="777"><stop offset="0" stop-color="#0a65c8"/><stop offset="1" stop-color="#4b8ff8"/></linearGradient><linearGradient id="d" gradientUnits="userSpaceOnUse" x1="750" y1="25" x2="750" y2="777"><stop offset="0" stop-color="#0a68d2"/><stop offset="1" stop-color="#5396f8"/></linearGradient><linearGradient id="e" gradientUnits="userSpaceOnUse" x1="800" y1="25" x2="800" y2="777"><stop offset="0" stop-color="#0b6bdc"/><stop offset="1" stop-color="#5a9cf9"/></linearGradient><linearGradient id="f" gradientUnits="userSpaceOnUse" x1="850" y1="25" x2="850" y2="777"><stop offset="0" stop-color="#0b6de7"/><stop offset="1" stop-color="#62a2fa"/></linearGradient><linearGradient id="g" gradientUnits="userSpaceOnUse" x1="900" y1="25" x2="900" y2="777"><stop offset="0" stop-color="#0c6ff1"/><stop offset="1" stop-color="#6aa8fa"/></linearGradient><linearGradient id="h" gradientUnits="userSpaceOnUse" x1="950" y1="25" x2="950" y2="777"><stop offset="0" stop-color="#1372f4"/><stop offset="1" stop-color="#72aefb"/></linearGradient><linearGradient id="i" gradientUnits="userSpaceOnUse" x1="1000" y1="25" x2="1000" y2="777"><stop offset="0" stop-color="#1d76f4"/><stop offset="1" stop-color="#7bb4fc"/></linearGradient><linearGradient id="j" gradientUnits="userSpaceOnUse" x1="1050" y1="25" x2="1050" y2="777"><stop offset="0" stop-color="#277af5"/><stop offset="1" stop-color="#83bafc"/></linearGradient><linearGradient id="k" gradientUnits="userSpaceOnUse" x1="1100" y1="25" x2="1100" y2="777"><stop offset="0" stop-color="#317ef5"/><stop offset="1" stop-color="#8bc0fd"/></linearGradient><linearGradient id="l" gradientUnits="userSpaceOnUse" x1="1150" y1="25" x2="1150" y2="777"><stop offset="0" stop-color="#3B82F6"/><stop offset="1" stop-color="#93C5FD"/></linearGradient></defs><path fill="url('#a')" d="M0 0h1200v800H0z"/><path fill="url('#b')" d="M100 0h1100v800H100z"/><path fill="url('#c')" d="M200 0h1000v800H200z"/><path fill="url('#d')" d="M300 0h900v800H300z"/><path fill="url('#e')" d="M400 0h800v800H400z"/><path fill="url('#f')" d="M500 0h700v800H500z"/><path fill="url('#g')" d="M600 0h600v800H600z"/><path fill="url('#h')" d="M700 0h500v800H700z"/><path fill="url('#i')" d="M800 0h400v800H800z"/><path fill="url('#j')" d="M900 0h300v800H900z"/><path fill="url('#k')" d="M1000 0h200v800h-200z"/><path fill="url('#l')" d="M1100 0h100v800h-100z"/></svg>