<svg xmlns="http://www.w3.org/2000/svg" viewBox="0 0 100 60"><path fill="#095FB4" d="M0 0h100v60H0z"/><path fill="#095FB4" d="M0 0h11v11H0z"/><path fill="#0f61b5" d="M10 0h11v11H10z"/><path fill="#1362b7" d="M0 10h11v11H0z"/><path fill="#1864b8" d="M20 0h11v11H20z"/><path fill="#1b66b9" d="M10 10h11v11H10z"/><path fill="#1e67ba" d="M0 20h11v11H0z"/><path fill="#2269bc" d="M30 0h11v11H30z"/><path fill="#246bbd" d="M20 10h11v11H20z"/><path fill="#276cbe" d="M10 20h11v11H10z"/><path fill="#2a6ebf" d="M0 30h11v11H0z"/><path fill="#2d70c1" d="M40 0h11v11H40z"/><path fill="#2f71c2" d="M30 10h11v11H30z"/><path fill="#3273c3" d="M20 20h11v11H20z"/><path fill="#3475c4" d="M10 30h11v11H10z"/><path fill="#3676c6" d="M0 40h11v11H0z"/><path fill="#3978c7" d="M50 0h11v11H50z"/><path fill="#3b7ac8" d="M40 10h11v11H40z"/><path fill="#3d7bc9" d="M30 20h11v11H30z"/><path fill="#3f7dcb" d="M20 30h11v11H20z"/><path fill="#417fcc" d="M10 40h11v11H10z"/><path fill="#4481cd" d="M0 50h11v11H0z"/><path fill="#4682ce" d="M60 0h11v11H60z"/><path fill="#4884d0" d="M50 10h11v11H50z"/><path fill="#4a86d1" d="M40 20h11v11H40z"/><path fill="#4c87d2" d="M30 30h11v11H30z"/><path fill="#4e89d3" d="M20 40h11v11H20z"/><path fill="#508bd5" d="M10 50h11v11H10z"/><path fill="#528dd6" d="M70 0h11v11H70z"/><path fill="#548ed7" d="M60 10h11v11H60z"/><path fill="#5690d8" d="M50 20h11v11H50z"/><path fill="#5892da" d="M40 30h11v11H40z"/><path fill="#5a94db" d="M30 40h11v11H30z"/><path fill="#5c95dc" d="M20 50h11v11H20z"/><path fill="#5e97dd" d="M80 0h11v11H80z"/><path fill="#6099df" d="M70 10h11v11H70z"/><path fill="#629be0" d="M60 20h11v11H60z"/><path fill="#649ce1" d="M50 30h11v11H50z"/><path fill="#679ee2" d="M40 40h11v11H40z"/><path fill="#69a0e3" d="M30 50h11v11H30z"/><path fill="#6ba2e5" d="M90 0h11v11H90z"/><path fill="#6da3e6" d="M80 10h11v11H80z"/><path fill="#6fa5e7" d="M70 20h11v11H70z"/><path fill="#71a7e8" d="M60 30h11v11H60z"/><path fill="#73a9ea" d="M50 40h11v11H50z"/><path fill="#75aaeb" d="M40 50h11v11H40z"/><path fill="#77acec" d="M90 10h11v11H90z"/><path fill="#79aeed" d="M80 20h11v11H80z"/><path fill="#7bb0ee" d="M70 30h11v11H70z"/><path fill="#7db1f0" d="M60 40h11v11H60z"/><path fill="#7fb3f1" d="M50 50h11v11H50z"/><path fill="#81b5f2" d="M90 20h11v11H90z"/><path fill="#83b7f3" d="M80 30h11v11H80z"/><path fill="#85b9f5" d="M70 40h11v11H70z"/><path fill="#87baf6" d="M60 50h11v11H60z"/><path fill="#89bcf7" d="M90 30h11v11H90z"/><path fill="#8bbef8" d="M80 40h11v11H80z"/><path fill="#8dc0f9" d="M70 50h11v11H70z"/><path fill="#8fc1fb" d="M90 40h11v11H90z"/><path fill="#91c3fc" d="M80 50h11v11H80z"/><path fill="#93C5FD" d="M90 50h11v11H90z"/></svg>