<svg xmlns="http://www.w3.org/2000/svg" width="2000" height="1000" viewBox="0 0 160 80"><path fill="#095FB4" d="M0 0h160v80H0z"/><g fill="#3082D0"><path d="M0 10V0h10zM0 40V30h10zM0 30V20h10zM0 70V60h10zM0 80V70h10zM50 80V70h10zM10 20V10h10zM10 40V30h10zM20 10V0h10zM10 10V0h10zM30 20V10h10zM20 20v20l20-20zM40 10V0h10zM40 20V10h10zM40 40V30h10zM30 40V30h10zM40 60V50h10zM50 30V20h10zM40 60v20l20-20zM50 40v20l20-20zM60 0v20L80 0zM70 30V20h10zM70 40V30h10zM60 60v20l20-20zM80 10V0h10zM70 40v20l20-20zM80 60V50h10zM60 30V20h10zM80 70v10h10l10-10zM80 10v30l30-30zM110 40V30h10zM90 40v30l30-30zM10 50v30l30-30zM110 60V50h10z"/><path d="M100 60v20l20-20zM110 0v20l20-20zM120 30V20h10zM130 10V0h10zM130 30V20h10zM120 40V30h10zM130 50V40h10zM120 50v20l20-20z"/><path d="M110 70v10h20l10-10zM140 10V0h10zM140 20V10h10zM140 40V30h10zM140 50V40h10zM140 70V60h10zM150 20v20l10-10V20zM150 60V50h10zM140 70v10h10l10-10z"/></g></svg>